<svg xmlns="http://www.w3.org/2000/svg" viewBox="0 0 120 120" width="120" height="120"><defs><linearGradient id="g" x1="0.15" y1="0" x2="0.55" y2="1"><stop offset="0" stop-color="#27c4ff"/><stop offset="1" stop-color="#2b6bff"/></linearGradient></defs><g transform="translate(0.00 0.00) scale(1) translate(3.00 -3.00)"><g transform="rotate(-9 60 60)"><path d="M40 14H80C99 14 114 29 114 48V60C114 79 99 94 80 94H50C41 98 31 102 15 102C13 102 12 100 13.5 98.5C17 95 19 90 18 83C10 77 6 69 6 60V48C6 29 21 14 40 14Z" fill="url(#g)"/><rect x="19" y="25" width="82" height="58" rx="24" fill="#06060a" stroke="#fff" stroke-width="5"/><path d="M46 42L41.5 55" stroke="#fff" stroke-width="5.5" stroke-linecap="round" stroke-linejoin="round" fill="none"/><path d="M75 42L70.5 55" stroke="#fff" stroke-width="5.5" stroke-linecap="round" stroke-linejoin="round" fill="none"/></g></g></svg>